<svg xmlns="http://www.w3.org/2000/svg" width="900" height="900" viewBox="0 0 900 900">
  <defs>
    <linearGradient id="bg" x1="0" y1="0" x2="1" y2="1">
      <stop offset="0%" stop-color="#581c87"/>
      <stop offset="100%" stop-color="#ec4899"/>
    </linearGradient>
  </defs>
  <rect width="900" height="900" fill="url(#bg)"/>
  <circle cx="450" cy="330" r="170" fill="#f6d0ba"/>
  <path d="M220 780c18-156 116-248 230-248s212 92 230 248" fill="#f6d0ba"/>
  <path d="M278 289c24-89 111-149 205-149 72 0 129 36 161 95-46-1-102 13-157 35-64 24-114 56-148 90-31-14-48-39-61-71z" fill="#111827"/>
  <path d="M248 780c42-118 123-190 202-190 81 0 162 72 202 190" fill="#dbeafe"/>
  <text x="450" y="835" font-family="Inter, Arial, sans-serif" font-size="52" text-anchor="middle" fill="#ffffff" font-weight="700">Philippines Student</text>
</svg>
