<svg xmlns="http://www.w3.org/2000/svg" width="900" height="900" viewBox="0 0 900 900">
  <defs>
    <linearGradient id="bg" x1="0" y1="0" x2="1" y2="1">
      <stop offset="0%" stop-color="#14386c"/>
      <stop offset="100%" stop-color="#3f83f8"/>
    </linearGradient>
  </defs>
  <rect width="900" height="900" fill="url(#bg)"/>
  <circle cx="450" cy="330" r="170" fill="#f8d6c2"/>
  <path d="M225 780c22-165 125-255 225-255s203 90 225 255" fill="#f8d6c2"/>
  <path d="M293 255c40-74 134-110 225-87 76 20 116 74 128 148-43-20-90-31-134-31-96 0-177 44-219 103-19-58-19-94 0-133z" fill="#1f2937"/>
  <path d="M253 780c39-122 118-188 197-188 77 0 159 66 196 188" fill="#ffffff"/>
  <text x="450" y="835" font-family="Inter, Arial, sans-serif" font-size="58" text-anchor="middle" fill="#ffffff" font-weight="700">Georgia Student</text>
</svg>
